<mxfile host="app.diagrams.net" modified="2024-03-08T21:38:59.793Z" agent="Mozilla/5.0 (Windows NT 10.0; Win64; x64) AppleWebKit/537.36 (KHTML, like Gecko) Chrome/122.0.0.0 Safari/537.36" etag="SFHfAKfDUm3ADM_Xyeft" version="24.0.2" type="github">
  <diagram name="Página-1" id="beclMFLxGuJeknQaG3Ke">
    <mxGraphModel dx="1674" dy="756" grid="1" gridSize="10" guides="1" tooltips="1" connect="1" arrows="1" fold="1" page="1" pageScale="1" pageWidth="827" pageHeight="1169" math="0" shadow="0">
      <root>
        <mxCell id="0" />
        <mxCell id="1" parent="0" />
        <mxCell id="EJfEsMFhtHWVOwrT9QT5-1" value="Conta" style="swimlane;fontStyle=1;align=center;verticalAlign=top;childLayout=stackLayout;horizontal=1;startSize=26;horizontalStack=0;resizeParent=1;resizeParentMax=0;resizeLast=0;collapsible=1;marginBottom=0;whiteSpace=wrap;html=1;" vertex="1" parent="1">
          <mxGeometry x="280" width="320" height="280" as="geometry" />
        </mxCell>
        <mxCell id="EJfEsMFhtHWVOwrT9QT5-2" value="Numero: integer" style="text;align=left;verticalAlign=top;spacingLeft=4;spacingRight=4;overflow=hidden;rotatable=0;points=[[0,0.5],[1,0.5]];portConstraint=eastwest;" vertex="1" parent="EJfEsMFhtHWVOwrT9QT5-1">
          <mxGeometry y="26" width="320" height="24" as="geometry" />
        </mxCell>
        <mxCell id="EJfEsMFhtHWVOwrT9QT5-3" value="Saldo: double" style="text;align=left;verticalAlign=top;spacingLeft=4;spacingRight=4;overflow=hidden;rotatable=0;points=[[0,0.5],[1,0.5]];portConstraint=eastwest;" vertex="1" parent="EJfEsMFhtHWVOwrT9QT5-1">
          <mxGeometry y="50" width="320" height="24" as="geometry" />
        </mxCell>
        <mxCell id="EJfEsMFhtHWVOwrT9QT5-4" value="Limite: double" style="text;align=left;verticalAlign=top;spacingLeft=4;spacingRight=4;overflow=hidden;rotatable=0;points=[[0,0.5],[1,0.5]];portConstraint=eastwest;" vertex="1" parent="EJfEsMFhtHWVOwrT9QT5-1">
          <mxGeometry y="74" width="320" height="24" as="geometry" />
        </mxCell>
        <mxCell id="EJfEsMFhtHWVOwrT9QT5-5" value="Extrato: List&lt;Transações&gt;" style="text;align=left;verticalAlign=top;spacingLeft=4;spacingRight=4;overflow=hidden;rotatable=0;points=[[0,0.5],[1,0.5]];portConstraint=eastwest;" vertex="1" parent="EJfEsMFhtHWVOwrT9QT5-1">
          <mxGeometry y="98" width="320" height="24" as="geometry" />
        </mxCell>
        <mxCell id="EJfEsMFhtHWVOwrT9QT5-6" value="GerarNumero():Integer" style="text;align=left;verticalAlign=top;spacingLeft=4;spacingRight=4;overflow=hidden;rotatable=0;points=[[0,0.5],[1,0.5]];portConstraint=eastwest;" vertex="1" parent="EJfEsMFhtHWVOwrT9QT5-1">
          <mxGeometry y="122" width="320" height="30" as="geometry" />
        </mxCell>
        <mxCell id="EJfEsMFhtHWVOwrT9QT5-7" value="Banco: String" style="text;align=left;verticalAlign=top;spacingLeft=4;spacingRight=4;overflow=hidden;rotatable=0;points=[[0,0.5],[1,0.5]];portConstraint=eastwest;" vertex="1" parent="EJfEsMFhtHWVOwrT9QT5-1">
          <mxGeometry y="152" width="320" height="30" as="geometry" />
        </mxCell>
        <mxCell id="EJfEsMFhtHWVOwrT9QT5-8" value="" style="line;strokeWidth=1;fillColor=none;align=left;verticalAlign=middle;spacingTop=-1;spacingLeft=3;spacingRight=3;rotatable=0;labelPosition=right;points=[];portConstraint=eastwest;strokeColor=inherit;" vertex="1" parent="EJfEsMFhtHWVOwrT9QT5-1">
          <mxGeometry y="182" width="320" height="8" as="geometry" />
        </mxCell>
        <mxCell id="EJfEsMFhtHWVOwrT9QT5-9" value="GerarNumero():Integer" style="text;align=left;verticalAlign=top;spacingLeft=4;spacingRight=4;overflow=hidden;rotatable=0;points=[[0,0.5],[1,0.5]];portConstraint=eastwest;" vertex="1" parent="EJfEsMFhtHWVOwrT9QT5-1">
          <mxGeometry y="190" width="320" height="30" as="geometry" />
        </mxCell>
        <mxCell id="EJfEsMFhtHWVOwrT9QT5-10" value="VerSaldo(): void" style="text;align=left;verticalAlign=top;spacingLeft=4;spacingRight=4;overflow=hidden;rotatable=0;points=[[0,0.5],[1,0.5]];portConstraint=eastwest;" vertex="1" parent="EJfEsMFhtHWVOwrT9QT5-1">
          <mxGeometry y="220" width="320" height="30" as="geometry" />
        </mxCell>
        <mxCell id="EJfEsMFhtHWVOwrT9QT5-11" value="RegistrarTransação(transação transacao):Integer" style="text;align=left;verticalAlign=top;spacingLeft=4;spacingRight=4;overflow=hidden;rotatable=0;points=[[0,0.5],[1,0.5]];portConstraint=eastwest;" vertex="1" parent="EJfEsMFhtHWVOwrT9QT5-1">
          <mxGeometry y="250" width="320" height="30" as="geometry" />
        </mxCell>
      </root>
    </mxGraphModel>
  </diagram>
</mxfile>
